<svg width="108" height="116" viewBox="0 0 108 116" fill="none" xmlns="http://www.w3.org/2000/svg">
<path d="M56.9021 0.116211V9.2528L89.4007 27.7573L97.3807 23.1312L56.9021 0.116211Z" fill="#369EFF"/>
<path d="M51.8135 53.6635L3.93314 26.7163L0.232239 29.6076V36.4312L47.4187 62.3375L51.8135 59.6774V53.6635Z" fill="#369EFF"/>
<path d="M107.441 80.2623L103.856 78.0649L69.8539 97.726V103.277L74.3644 105.59L107.441 87.2015V80.2623Z" fill="#369EFF"/>
<path d="M107.326 29.144L103.625 26.5996L55.6291 54.2407V59.792L60.1396 62.1051L107.326 36.1988V29.144Z" fill="#369EFF"/>
<path d="M57.0169 116V63.3779L67.7726 69.6232V108.598L57.0169 116Z" fill="#369EFF"/>
<path d="M32.8455 78.6456L0 60.1411V69.2777L30.3011 86.3944L32.8455 84.197V78.6456Z" fill="#369EFF"/>
<path d="M49.9618 63.8408L39.4374 69.0452V109.408L49.9618 115.422V63.8408Z" fill="#369EFF"/>
<path d="M50.54 0L10.0614 23.1306L17.6945 27.5254L50.54 9.59921V0Z" fill="#369EFF"/>
</svg>
